<svg xmlns="http://www.w3.org/2000/svg" viewBox="0 0 194.0148 171.2329"><defs><style>.cls-1{fill:#020202;}</style></defs><title>miner</title><g id="Layer_2" data-name="Layer 2"><path class="cls-1" d="M30.3372,172c-2.9995-3.0034-6.069-5.9408-8.9783-9.0291-2.7676-2.9377-2.6351-4.6461.3053-7.4847Q51.8877,126.31,82.1586,97.1829c1.74-1.669,1.9528-2.5055.1383-4.3577q-19.2322-19.6326-38.1823-39.54c-1.64-1.7189-2.3874-1.494-3.7818.1716a126.0507,126.0507,0,0,0-16.12,24.371c-.7961,1.5851-1.17,2.2055-2.827.7135C15.2493,73.0165,9,67.6152,2.71,62.2659,1.4568,61.2,1.2923,60.522,2.1363,59.04A152.1407,152.1407,0,0,1,59.7348,1.3556c1.4943-.8566,2.31-.8613,3.4937.5428q7.8006,9.251,15.8693,18.2739c1.4262,1.5963,1.6088,2.201-.5834,3.284a115.1127,115.1127,0,0,0-25.7194,17.4c2.7676,2.9642,5.3683,5.9822,8.21,8.7526C72.0855,60.41,83.2808,71.0935,94.3266,81.93c1.5605,1.5309,2.28,1.3315,3.7157-.0694Q116.39,63.9615,134.9231,46.2541c1.6214-1.546,1.4353-2.2767-.0389-3.7149-6.5916-6.4307-13.0257-13.0227-19.6-19.471-1.23-1.206-1.3346-1.8308-.0352-3.095q8.6755-8.4406,17.1193-17.1179c1.1462-1.1733,1.7185-1.0941,2.8276.034,6.6561,6.77,13.4315,13.4232,20.0829,20.1979,1.3043,1.3285,2.27,1.8451,3.49.0835.8058-1.1641,1.4922-.9694,2.4174.0162q3.3119,3.5282,6.8468,6.844c1.1249,1.0517,1.1044,1.8264-.0749,2.6879-1.4132,1.0326-1.3509,1.9513.0232,3.0538,6.7429,5.41,10.9919,12.56,14.5465,20.3221,3.78,8.2536,8.04,16.2867,12.0741,24.4244.4118.8307,1.0949,1.5681,1.02,2.5952-1.0494.8785-1.6912-.2392-2.3987-.5861-8.1515-3.9969-16.1877-8.2388-24.4228-12.0525-7.9868-3.6988-15.4157-8.0376-21.05-14.9781a11.91,11.91,0,0,0-1.1261-1.0135c-.534.6678-1.0135,1.3763-1.5985,1.9831-11.7906,12.2315-23.5553,24.4885-35.44,36.6284-1.5682,1.602-1.3063,2.3032.1439,3.693q21.1734,20.2916,42.2219,40.7133,9.4215,9.0985,18.8492,18.1908c1.73,1.6631,2.9534,3.6715,1.2645,5.7456-3.2589,4.0023-6.6244,7.9787-11.2511,10.5617h-1.7093c-1.0409-.9373-2.1422-1.8162-3.1137-2.8206Q127.182,139.4,98.45,109.5458c-1.846-1.9261-2.6815-2.1752-4.663-.1026q-28.5329,29.8458-57.2778,59.489A12.6519,12.6519,0,0,1,32.6163,172Z" transform="translate(-1.6123 -0.7671)"/></g></svg>