<svg width="418" height="110" viewBox="0 0 418 110" fill="none" xmlns="http://www.w3.org/2000/svg">
<path d="M362.923 110L328.459 75.5355L293.994 110L259.53 75.5355L225.065 110L190.601 75.5355L156.136 110L121.562 75.4254L86.9871 110L32.0421 54.945L86.9871 0L121.562 34.5746L156.136 0L190.601 34.4645L225.065 0L259.53 34.4645L293.994 0L328.459 34.4645L362.923 0L417.868 54.945L362.923 110ZM38.2083 54.945L86.9871 103.724L121.562 69.1491L156.136 103.724L190.601 69.2593L225.065 103.724L259.53 69.2593L293.994 103.724L328.459 69.2593L362.923 103.724L411.702 54.945L362.923 6.27629L328.459 40.7407L293.994 6.27629L259.53 40.7407L225.065 6.27629L190.601 40.7407L156.136 6.27629L121.562 40.7407L86.9871 6.27629L38.2083 54.945Z" fill="#262626"/>
<path d="M50.9998 72.4239L68.4403 54.9834L51.0309 37.574L33.5904 55.0145L50.9998 72.4239Z" fill="white"/>
<path d="M51.0904 73.9941L32.1514 54.9451L51.0904 36.0061L70.1394 54.9451L51.0904 73.9941ZM35.2345 54.9451L51.0904 70.8009L66.9463 54.9451L51.0904 39.0892L35.2345 54.9451Z" fill="#262626"/>
<path d="M121.52 72.3746L138.961 54.9341L121.552 37.5247L104.111 54.9652L121.52 72.3746Z" fill="white"/>
<path d="M121.672 73.9941L102.733 54.9451L121.672 36.0061L140.611 54.9451L121.672 73.9941ZM105.816 54.9451L121.672 70.8009L137.528 54.9451L121.672 39.0892L105.816 54.9451Z" fill="#262626"/>
<path d="M190.487 72.3358L207.928 54.8953L190.518 37.4859L173.078 54.9264L190.487 72.3358Z" fill="white"/>
<path d="M190.601 73.9941L171.662 54.9451L190.601 36.0061L209.54 54.9451L190.601 73.9941ZM174.745 54.9451L190.601 70.8009L206.457 54.9451L190.601 39.0892L174.745 54.9451Z" fill="#262626"/>
<path d="M259.344 72.4074L276.785 54.9668L259.376 37.5574L241.935 54.998L259.344 72.4074Z" fill="white"/>
<path d="M259.53 73.9941L240.591 54.9451L259.53 36.0061L278.469 54.9451L259.53 73.9941ZM243.674 54.9451L259.53 70.8009L275.386 54.9451L259.53 39.0892L243.674 54.9451Z" fill="#262626"/>
<path d="M328.311 72.3685L345.752 54.928L328.342 37.5186L310.902 54.9592L328.311 72.3685Z" fill="white"/>
<path d="M328.457 73.9941L309.518 54.9451L328.457 36.0061L347.396 54.9451L328.457 73.9941ZM312.601 54.9451L328.457 70.8009L344.313 54.9451L328.457 39.0892L312.601 54.9451Z" fill="#262626"/>
<path d="M16.6266 108.458L0 91.8318L1.54154 90.2902L16.6266 105.265L66.9469 54.9449L16.6266 4.62459L2.75275 18.6086L1.1011 16.9569L16.6266 1.5415L70.03 54.9449L16.6266 108.458Z" fill="#262626"/>
</svg>
