<svg width="26" height="26" viewBox="0 0 26 26" fill="none" xmlns="http://www.w3.org/2000/svg">
<path fill-rule="evenodd" clip-rule="evenodd" d="M12.9697 0.000128473C9.8896 0.000810855 6.91022 1.09741 4.56464 3.09373C2.21905 5.09005 0.660309 7.85583 0.167291 10.8962C-0.325727 13.9366 0.27915 17.0532 1.8737 19.6885C3.46825 22.3237 5.94843 24.3056 8.87049 25.2796C9.51993 25.3954 9.75725 24.9971 9.75725 24.6579C9.75725 24.3187 9.75725 23.5316 9.73873 22.4503C6.13151 23.234 5.36862 20.7138 5.36862 20.7138C5.1314 19.9293 4.62036 19.256 3.92851 18.8165C2.75235 18.0061 4.01881 18.0293 4.01881 18.0293C4.42985 18.0858 4.82256 18.2355 5.16701 18.4668C5.51147 18.6981 5.79858 19.005 6.00648 19.364C6.18168 19.6843 6.41871 19.9665 6.70383 20.1944C6.98895 20.4224 7.31648 20.5914 7.66743 20.6918C8.01838 20.7921 8.38577 20.8218 8.74829 20.7791C9.1108 20.7364 9.46123 20.6221 9.77924 20.443C9.84041 19.785 10.1324 19.1699 10.6035 18.7065C7.72327 18.3951 4.6995 17.2664 4.6995 12.2966C4.68416 11.005 5.16766 9.75728 6.04931 8.81327C5.65325 7.69859 5.69881 6.47459 6.17666 5.39243C6.17666 5.39243 7.26484 5.04514 9.74104 6.72025C11.8677 6.1397 14.1111 6.1397 16.2377 6.72025C18.7255 5.04051 19.7987 5.39243 19.7987 5.39243C20.2795 6.4737 20.3263 7.69844 19.9295 8.81327C20.8041 9.75897 21.2808 11.0052 21.2608 12.2931C21.2608 17.271 18.2289 18.3731 15.3568 18.6938C15.6662 19.0081 15.9047 19.3849 16.0565 19.799C16.2082 20.2131 16.2696 20.6549 16.2366 21.0947V24.6579C16.2366 25.0052 16.4681 25.4069 17.1291 25.2796C20.0562 24.3041 22.5397 22.3172 24.134 19.6757C25.7282 17.0341 26.3288 13.9108 25.8279 10.8664C25.3269 7.82199 23.7573 5.05578 21.4008 3.06428C19.0442 1.07279 16.055 -0.0135965 12.9697 0.000128473Z" fill="white"/>
</svg>
