<svg xmlns="http://www.w3.org/2000/svg" viewBox="0 0 132 132" width="132" height="132" preserveAspectRatio="xMidYMid meet" style="width: 100%; height: 100%; transform: translate3d(0px, 0px, 0px);"><defs><clipPath id="__lottie_element_136"><rect width="132" height="132" x="0" y="0"></rect></clipPath></defs><g clip-path="url(#__lottie_element_136)"><g transform="matrix(1,0,0,1,66,66)" opacity="1" style="display: block;"><g opacity="1" transform="matrix(0.800000011920929,0,0,0.800000011920929,0,0)"><path stroke-linecap="round" stroke-linejoin="round" fill-opacity="0" stroke="rgb(153,255,209)" stroke-opacity="1" stroke-width="16" d=" M31.24799919128418,58.137001037597656 C21.944000244140625,63.15299987792969 11.302000045776367,66 0,66 C-0.5270000100135803,66 -1.0520000457763672,65.99400329589844 -1.5759999752044678,65.98200225830078"></path></g></g><g transform="matrix(1,0,0,1,66,66)" opacity="1" style="display: block;"><g opacity="1" transform="matrix(0.800000011920929,0,0,0.800000011920929,0,0)"><path stroke-linecap="round" stroke-linejoin="round" fill-opacity="0" stroke="rgb(92,252,182)" stroke-opacity="1" stroke-width="16.05" d=" M-1.5759999752044678,65.98200225830078 C-37.275001525878906,65.14299774169922 -66,35.89899826049805 -66,0 C-66,-19.82200050354004 -57.242000579833984,-37.6150016784668 -43.38800048828125,-49.71699905395508"></path></g></g><g transform="matrix(1,0,0,1,66,66)" opacity="1" style="display: block;"><g opacity="1" transform="matrix(0.800000011920929,0,0,0.800000011920929,0,0)"><path stroke-linecap="round" stroke-linejoin="round" fill-opacity="0" stroke="rgb(0,255,143)" stroke-opacity="1" stroke-width="16.1" d=" M-54.95500183105469,36.54199981689453 C-61.93199920654297,26.07699966430664 -66,13.510000228881836 -66,0 C-66,-35.3129997253418 -38.20399856567383,-64.18800354003906 -3.315999984741211,-65.91799926757812"></path></g></g></g></svg>