<svg xmlns="http://www.w3.org/2000/svg" viewBox="0 0 45.1 50.6"><defs><style>.a{fill:#20f092;}</style></defs><polygon class="a" points="2.4 4.7 0 4.7 0 7.1 0 9.5 2.4 9.5 2.4 7.1 2.4 4.7"/><rect class="a" x="2.4" y="2.4" width="2.4" height="2.37"/><rect class="a" x="2.4" y="9.5" width="2.4" height="2.37"/><polygon class="a" points="11.9 9.5 14.2 9.5 14.2 7.1 14.2 4.7 11.9 4.7 11.9 7.1 11.9 9.5"/><polygon class="a" points="7.1 14.2 7.1 11.9 4.7 11.9 4.7 14.2 4.7 16.6 7.1 16.6 7.1 14.2"/><rect class="a" x="14.2" y="9.5" width="2.4" height="2.37"/><rect class="a" x="16.6" y="7.1" width="2.4" height="2.37"/><rect class="a" x="19" y="4.7" width="2.4" height="2.37"/><rect class="a" x="21.4" y="2.4" width="2.4" height="2.37"/><rect class="a" x="23.7" width="2.4" height="2.37"/><polygon class="a" points="23.7 34.8 21.4 34.8 19 34.8 16.6 34.8 16.6 37.2 19 37.2 19 39.6 21.4 39.6 23.7 39.6 26.1 39.6 26.1 37.2 28.5 37.2 28.5 34.8 26.1 34.8 23.7 34.8"/><rect class="a" x="4.7" y="38.8" width="2.4" height="2.37"/><rect class="a" x="7.1" y="41.1" width="2.4" height="2.37"/><rect class="a" x="9.5" y="43.5" width="2.4" height="2.37"/><rect class="a" x="11.9" y="45.9" width="2.4" height="2.37"/><rect class="a" x="9.5" y="2.4" width="2.4" height="2.37"/><polygon class="a" points="9.5 2.4 9.5 0 7.1 0 4.7 0 4.7 2.4 7.1 2.4 9.5 2.4"/><polygon class="a" points="42.7 4.7 42.7 7.1 42.7 9.5 45.1 9.5 45.1 7.1 45.1 4.7 42.7 4.7"/><rect class="a" x="40.3" y="2.4" width="2.4" height="2.37"/><rect class="a" x="40.3" y="9.5" width="2.4" height="2.37"/><polygon class="a" points="40.3 2.4 40.3 0 38 0 35.6 0 35.6 2.4 38 2.4 40.3 2.4"/><polygon class="a" points="33.2 7.1 33.2 4.7 30.9 4.7 30.9 7.1 30.9 9.5 33.2 9.5 33.2 7.1"/><polygon class="a" points="38 14.2 38 16.6 40.3 16.6 40.3 14.2 40.3 11.9 38 11.9 38 14.2"/><rect class="a" x="28.5" y="9.5" width="2.4" height="2.37"/><rect class="a" x="23.7" y="4.7" width="2.4" height="2.37"/><rect class="a" x="26.1" y="7.1" width="2.4" height="2.37"/><polygon class="a" points="40.3 21.4 38 21.4 35.6 21.4 33.2 21.4 33.2 23.7 33.2 26.1 33.2 28.5 33.2 30.9 33.2 31.6 35.6 31.6 38 31.6 40.3 31.6 40.3 34 40.3 36.4 40.3 38.8 42.7 38.8 42.7 36.4 42.7 34 42.7 31.6 45.1 31.6 45.1 30.9 45.1 28.5 45.1 26.1 45.1 23.7 45.1 21.4 42.7 21.4 42.7 19 42.7 16.6 40.3 16.6 40.3 19 40.3 21.4"/><rect class="a" x="38" y="38.8" width="2.4" height="2.37"/><polygon class="a" points="4.7 34 4.7 31.6 7.1 31.6 9.5 31.6 11.9 31.6 14.2 31.6 16.6 31.6 19 31.6 21.4 31.6 23.7 31.6 26.1 31.6 28.5 31.6 30.9 31.6 30.9 30.9 30.9 28.5 30.9 26.1 30.9 23.7 30.9 21.4 28.5 21.4 26.1 21.4 23.7 21.4 21.4 21.4 19 21.4 16.6 21.4 14.2 21.4 11.9 21.4 9.5 21.4 7.1 21.4 4.7 21.4 4.7 19 4.7 16.6 2.4 16.6 2.4 19 2.4 21.4 0 21.4 0 23.7 0 26.1 0 28.5 0 30.9 0 31.6 2.4 31.6 2.4 34 2.4 36.4 2.4 38.8 4.7 38.8 4.7 36.4 4.7 34"/><rect class="a" x="35.6" y="41.1" width="2.4" height="2.37"/><rect class="a" x="33.2" y="43.5" width="2.4" height="2.37"/><rect class="a" x="30.9" y="45.9" width="2.4" height="2.37"/><polygon class="a" points="26.1 48.3 23.7 48.3 21.4 48.3 19 48.3 16.6 48.3 14.2 48.3 14.2 50.6 16.6 50.6 19 50.6 21.4 50.6 23.7 50.6 26.1 50.6 28.5 50.6 30.9 50.6 30.9 48.3 28.5 48.3 26.1 48.3"/><rect class="a" x="33.2" y="2.4" width="2.4" height="2.37"/></svg>