<?xml version="1.0" encoding="utf-8"?>
<!-- Generator: Adobe Illustrator 25.2.3, SVG Export Plug-In . SVG Version: 6.00 Build 0)  -->
<svg version="1.1" id="Layer_1" xmlns="http://www.w3.org/2000/svg" xmlns:xlink="http://www.w3.org/1999/xlink" x="0px" y="0px"
	 viewBox="0 0 216 47" style="enable-background:new 0 0 216 47;" xml:space="preserve">
<style type="text/css">
	.st0{fill:#FFFFFF;}
</style>
<g>
	<path class="st0" d="M10.2,29.2c0,1.2,0,3.3,2.7,3.3c0.7,0,1.2,0,1.5-0.1v5c-0.7,0.1-1.8,0.2-2.7,0.2c-4.6,0-7.5-0.8-7.5-5.5V19.9
		H1.6v-5.2h2.7V8.8h5.9v5.9h4.4v5.2h-4.4C10.2,19.9,10.2,29.2,10.2,29.2z"/>
	<path class="st0" d="M18.1,26.1c0-9,7.8-11.4,12-11.4c5.6,0,11.3,3.8,11.5,10.9c0,1.7-0.1,2.8-0.1,2.8H24.1c0.7,3.6,4.8,4,6,4
		c3.3,0,5-1.8,5.6-2.6l4.6,2.7c-0.9,1.2-3.8,5.1-10.3,5.1C25.8,37.6,18.1,35.1,18.1,26.1z M24.2,24.1h11c-0.2-2-2.2-4.2-5.2-4.2
		C26.6,19.9,24.5,21.8,24.2,24.1z"/>
	<path class="st0" d="M46.4,6.8h6V37h-6V6.8z"/>
	<path class="st0" d="M58.2,6.8h6V37h-6C58.2,37,58.2,6.8,58.2,6.8z"/>
	<path class="st0" d="M68.9,26c0-6.3,5.4-11.4,11.9-11.4s12,5.2,12,11.4c0,6.4-5.4,11.5-12,11.5S68.9,32.4,68.9,26z M74.8,26
		c0,3.6,2.6,6.3,6,6.3s6-2.7,6-6.3c0-3.5-2.6-6.2-6-6.2S74.8,22.6,74.8,26z"/>
	<path class="st0" d="M103.6,27.3V37h-6V15h6v2.9c2.2-3,6-3.4,7.5-3.3v5.8C109.6,20.3,103.6,20.6,103.6,27.3z"/>
	<path class="st0" d="M113.4,34.1l3.1-4.2c1.7,1.2,4.5,2.4,7.1,2.4c1.8,0,3.2-0.8,3.2-2c0-1.5-3.1-1.6-4.2-1.8
		c-3-0.5-8.7-1.4-8.7-6.9c0-6.4,7-7,9.1-7c3.5,0,6.3,1,9.2,3.2l-3.1,4.1c-1.6-1-3.8-2-6.2-2c-1.2,0-2.9,0.6-2.9,1.6
		c0,1.5,3.2,1.8,4.2,2c3.7,0.6,8.8,1.3,8.8,7c0,4.6-3.3,7.2-9,7.2C119,37.5,115.8,36,113.4,34.1z"/>
	<path class="st0" d="M136.5,26.1c0-6.3,5.4-11.4,12-11.4c4.6,0,8.6,2.3,10.8,6.4l-5.4,2.1c-1.3-2.2-3.2-3.3-5.4-3.3
		c-3.5,0-6,2.6-6,6.2s2.6,6.2,6,6.2c2.2,0,4.2-0.9,5.6-3.2l5.1,2c-2.1,4.3-5.6,6.5-10.6,6.5C141.9,37.6,136.5,32.4,136.5,26.1z"/>
	<path class="st0" d="M180.2,34.8c-0.9,1.2-3.6,2.7-6.7,2.7c-7,0-11-5.2-11-11.5s4.1-11.5,11-11.5c3.2,0,5.6,1.3,6.7,2.8V15h5.9v22
		h-5.9V34.8z M174.4,19.8c-3.8,0-6,2.6-6,6.2c0,3.5,2.4,6.2,6,6.2c3.7,0,6-2.4,6-6.2C180.4,22.4,178.1,19.8,174.4,19.8z"/>
	<path class="st0" d="M212.5,24v13h-6.1V24c0-3.4-1.9-4.4-4.2-4.4c-1.6,0-4.3,1-4.2,5.8V37h-6V15h6v2c1.5-1.5,3.9-2.4,5.9-2.4
		C210.2,14.6,212.5,18.3,212.5,24z"/>
</g>
</svg>
