<svg width="26" height="22" viewBox="0 0 26 22" fill="none" xmlns="http://www.w3.org/2000/svg">
<path d="M8.17772 21.1381C10.1745 21.1528 12.1542 20.7705 14.0019 20.0133C15.8496 19.2561 17.5284 18.1392 18.9406 16.7276C20.3529 15.3159 21.4704 13.6376 22.2283 11.7902C22.9862 9.94275 23.3693 7.96314 23.3554 5.96637C23.3554 5.72844 23.3554 5.50478 23.3387 5.27637C24.3828 4.52093 25.284 3.58552 26 2.51398C25.0274 2.94669 23.995 3.23024 22.9378 3.35507C24.0512 2.68833 24.8845 1.63986 25.2826 0.404712C24.2387 1.02403 23.097 1.46132 21.9064 1.69787C21.1754 0.913489 20.225 0.367547 19.1791 0.131219C18.1333 -0.105109 17.0405 -0.0208572 16.0432 0.372989C15.046 0.766835 14.1905 1.452 13.5883 2.33917C12.9862 3.22634 12.6653 4.27434 12.6675 5.34656C12.666 5.75516 12.7107 6.16263 12.8007 6.5612C10.6801 6.45424 8.60553 5.90281 6.71164 4.94265C4.81776 3.98249 3.1468 2.63503 1.80709 0.987645C1.12473 2.16199 0.915889 3.55236 1.22315 4.87534C1.53041 6.19833 2.33064 7.35435 3.46072 8.10776C2.61371 8.08206 1.78534 7.85273 1.04571 7.43917C1.04436 7.46175 1.04436 7.48439 1.04571 7.50698C1.04456 8.73913 1.46989 9.93371 2.24949 10.8879C3.02908 11.842 4.11489 12.497 5.32254 12.7415C4.53794 12.9559 3.71463 12.9876 2.91585 12.8343C3.25661 13.8937 3.91988 14.8202 4.81296 15.4842C5.70604 16.1482 6.78429 16.5165 7.89696 16.5377C6.00709 18.0195 3.67325 18.8216 1.27175 18.8147C0.846753 18.815 0.422108 18.7904 0 18.7409C2.44261 20.3097 5.28545 21.1415 8.18842 21.1369" fill="#1DA1F2"/>
</svg>
